<svg version="1.2" xmlns="http://www.w3.org/2000/svg" viewBox="0 0 755 869" width="755" height="869">
	<title>dextools-svg</title>
	<style>
		.s0 { fill: #ffffff } 
	</style>
	<path id="Layer" class="s0" d="m302.9 139.6c-39.5 20.6-71.9 38.1-71.9 38.8 0 1.8 95 49.9 98.4 49.8 1.5-0.1 12.6-5.2 24.7-11.4l21.9-11.3 24 12.3 24 12.4 39.2-17.7c59.1-26.5 65.3-29.4 64.3-30.4-1.3-1.3-22.5-12.7-80-43-27.8-14.6-54.8-29-60-31.9-5.2-2.9-10.1-5.2-11-5.2-0.9 0-34 17-73.6 37.6zm-173.6 89.9l-41.2 21.3v93.4c0 51.4 0.5 93.5 1.2 93.5 0.6 0 20.9-8.8 45-19.6l43.9-19.5v-98.5l21.4 11.7q6.2 3.4 12.4 6.7 6.2 3.4 12.4 6.8 6.2 3.3 12.4 6.7 6.2 3.3 12.4 6.7l28.1 15.2 12.6-5.6q2.9-1.4 5.9-2.7 2.9-1.3 5.8-2.7 3-1.3 5.9-2.7 3-1.3 5.9-2.7c6-2.8 20.9-9.5 33-14.9 12-5.3 23.2-10.7 24.8-11.9 2.1-1.7-23.6-15.9-95-52.6-53.9-27.6-99.7-50.2-101.9-50.1-2.1 0.1-22.3 9.8-45 21.5zm405.6 6c-28 12.7-51 23.5-51.1 24.2 0 0.6 15.3 9.7 34 20.2 18.8 10.5 34.1 19.6 34.1 20.3 0 0.7-16.6 8.7-36.8 17.8-20.3 9.2-71.5 32.3-113.8 51.4l-141.8 64.1c-35.6 16.1-67.8 30.7-71.4 32.3-72.9 33-92.9 42.1-95.6 43.7-2.8 1.6-3.4 10.8-3.9 56.9l-0.6 55 36.9 18.8 36.8 18.7 51.1-23c28.1-12.7 51.1-23.8 51.1-24.6 0-0.8-5.2-4.2-11.5-7.5-6.4-3.3-19.5-10.7-29.1-16.4-9.7-5.7-19.4-10.9-21.5-11.6-2.1-0.6-3.8-1.8-3.8-2.6 0.1-0.8 22.6-11.5 50.1-23.8 53.3-23.8 94.1-42.2 181.8-81.9q14.7-6.6 29.4-13.3 14.7-6.6 29.4-13.2 14.7-6.7 29.4-13.3 14.7-6.7 29.4-13.3c34.4-15.6 74.5-33.7 89-40.4l26.4-12.1 0.6-55.6 0.6-55.6-37.4-19.2c-20.6-10.5-38.1-19.1-39.1-19.1-0.9 0-24.6 10.4-52.7 23.1zm118 200.7c-5.5 2.6-16.4 7.7-24.2 11.1-7.8 3.5-22.6 10.2-32.8 14.9l-18.7 8.5-0.5 48.8c-0.2 26.9-1.2 48.7-2.2 48.6-2.2-0.3-37.2-18.3-72.4-37.2-25.4-13.6-27-14.1-33-11.2-3.4 1.8-24 11-45.8 20.6-21.8 9.6-40.3 18.1-41.2 18.9-0.8 0.7 43 24.5 97.4 52.7l98.9 51.4 42.2-21.9c23.3-12 43-23 43.9-24.3 2.1-3.1 1.9-186.3-0.1-186-0.8 0.1-6 2.4-11.5 5.1zm-234 214.9q-2.8 1.2-5.5 2.4-2.7 1.1-5.5 2.3-2.7 1.2-5.5 2.4-2.7 1.2-5.5 2.4c-22.1 9.5-17.8 9.8-44.1-3.3-17.5-8.7-25.1-11.4-28.3-10.1-2.5 1-23.7 10.5-47.1 21.2-23.4 10.7-43.4 19.4-44.4 19.4-9.8 0 6.5 9.7 69.6 41.5l73.9 37.3 31.1-15.3c17.1-8.5 51.6-25.4 76.7-37.6 25-12.2 45.2-22.6 44.8-22.9-0.3-0.4-21.3-11.2-46.6-24l-46-23.3z"/>
</svg>